# xmcd CD database file
#
# Track frame offsets:
#	150
#	21002
#	41662
#	68760
#	86627
#	102032
#	123120
#	142187
#	161800
#	175502
#	190940
#	208070
#	222187
#	235580
#
# Disc length: 3412 seconds
#
# Revision: 0
# Processed by: cddbd v1.4PL0 Copyright (c) Steve Scherf et al.
# Submitted via: CDex 1.50
#
DISCID=bc0d520e
DTITLE=Holly Cole - The Greatest
DYEAR=1998
DGENRE=Jazz
TTITLE0=My Foolish Heart
TTITLE1=Girl Talk
TTITLE2=How Long Has This Been Going On
TTITLE3=Downtown
TTITLE4=Trust In Me
TTITLE5=Calling You
TTITLE6=I Can See Clearly Now
TTITLE7=Don't Let the Teardrops Rust Your Shining Heart
TTITLE8=Blame it On My Youth
TTITLE9=Alison
TTITLE10=Jersey Girl
TTITLE11=Temptation
TTITLE12=I Want You
TTITLE13=You Want More
EXTD=YEAR: 1998
EXTT0=
EXTT1=
EXTT2=
EXTT3=
EXTT4=
EXTT5=
EXTT6=
EXTT7=
EXTT8=
EXTT9=
EXTT10=
EXTT11=
EXTT12=
EXTT13=
PLAYORDER=
